<mxfile host="Electron" modified="2024-11-10T06:37:18.115Z" agent="Mozilla/5.0 (Windows NT 10.0; Win64; x64) AppleWebKit/537.36 (KHTML, like Gecko) draw.io/24.5.3 Chrome/124.0.6367.207 Electron/30.0.6 Safari/537.36" etag="TidCt5v0l0G08USOSzjC" version="24.5.3" type="device">
  <diagram name="Page-1" id="vYwqxEfE290PBfwFEqme">
    <mxGraphModel dx="875" dy="518" grid="1" gridSize="10" guides="1" tooltips="1" connect="1" arrows="1" fold="1" page="1" pageScale="1" pageWidth="827" pageHeight="1169" math="0" shadow="0">
      <root>
        <mxCell id="0" />
        <mxCell id="1" parent="0" />
        <mxCell id="b-Wh1WssHsihwaRTH4_j-3" value="" style="edgeStyle=orthogonalEdgeStyle;rounded=0;orthogonalLoop=1;jettySize=auto;html=1;" edge="1" parent="1" source="b-Wh1WssHsihwaRTH4_j-1" target="b-Wh1WssHsihwaRTH4_j-2">
          <mxGeometry relative="1" as="geometry" />
        </mxCell>
        <mxCell id="b-Wh1WssHsihwaRTH4_j-1" value="START" style="rounded=1;whiteSpace=wrap;html=1;arcSize=50;" vertex="1" parent="1">
          <mxGeometry x="280" y="40" width="120" height="60" as="geometry" />
        </mxCell>
        <mxCell id="b-Wh1WssHsihwaRTH4_j-8" value="" style="edgeStyle=orthogonalEdgeStyle;rounded=0;orthogonalLoop=1;jettySize=auto;html=1;" edge="1" parent="1" source="b-Wh1WssHsihwaRTH4_j-2" target="b-Wh1WssHsihwaRTH4_j-5">
          <mxGeometry relative="1" as="geometry" />
        </mxCell>
        <mxCell id="b-Wh1WssHsihwaRTH4_j-2" value="Receive Data" style="rounded=0;whiteSpace=wrap;html=1;" vertex="1" parent="1">
          <mxGeometry x="280" y="160" width="120" height="60" as="geometry" />
        </mxCell>
        <mxCell id="b-Wh1WssHsihwaRTH4_j-6" style="edgeStyle=orthogonalEdgeStyle;rounded=0;orthogonalLoop=1;jettySize=auto;html=1;exitX=0;exitY=0.5;exitDx=0;exitDy=0;entryX=0;entryY=0.5;entryDx=0;entryDy=0;" edge="1" parent="1" source="b-Wh1WssHsihwaRTH4_j-5" target="b-Wh1WssHsihwaRTH4_j-2">
          <mxGeometry relative="1" as="geometry" />
        </mxCell>
        <mxCell id="b-Wh1WssHsihwaRTH4_j-7" value="NO" style="edgeLabel;html=1;align=center;verticalAlign=middle;resizable=0;points=[];" vertex="1" connectable="0" parent="b-Wh1WssHsihwaRTH4_j-6">
          <mxGeometry x="-0.0134" relative="1" as="geometry">
            <mxPoint as="offset" />
          </mxGeometry>
        </mxCell>
        <mxCell id="b-Wh1WssHsihwaRTH4_j-12" value="" style="edgeStyle=orthogonalEdgeStyle;rounded=0;orthogonalLoop=1;jettySize=auto;html=1;" edge="1" parent="1" source="b-Wh1WssHsihwaRTH4_j-5" target="b-Wh1WssHsihwaRTH4_j-11">
          <mxGeometry relative="1" as="geometry" />
        </mxCell>
        <mxCell id="b-Wh1WssHsihwaRTH4_j-21" value="YES" style="edgeLabel;html=1;align=center;verticalAlign=middle;resizable=0;points=[];" vertex="1" connectable="0" parent="b-Wh1WssHsihwaRTH4_j-12">
          <mxGeometry relative="1" as="geometry">
            <mxPoint as="offset" />
          </mxGeometry>
        </mxCell>
        <mxCell id="b-Wh1WssHsihwaRTH4_j-5" value="Get Data?" style="rhombus;whiteSpace=wrap;html=1;" vertex="1" parent="1">
          <mxGeometry x="280" y="280" width="120" height="80" as="geometry" />
        </mxCell>
        <mxCell id="b-Wh1WssHsihwaRTH4_j-16" style="edgeStyle=orthogonalEdgeStyle;rounded=0;orthogonalLoop=1;jettySize=auto;html=1;exitX=0;exitY=0.5;exitDx=0;exitDy=0;endArrow=none;endFill=0;" edge="1" parent="1" source="b-Wh1WssHsihwaRTH4_j-11">
          <mxGeometry relative="1" as="geometry">
            <mxPoint x="260" y="320" as="targetPoint" />
          </mxGeometry>
        </mxCell>
        <mxCell id="b-Wh1WssHsihwaRTH4_j-18" value="" style="edgeStyle=orthogonalEdgeStyle;rounded=0;orthogonalLoop=1;jettySize=auto;html=1;" edge="1" parent="1" source="b-Wh1WssHsihwaRTH4_j-11" target="b-Wh1WssHsihwaRTH4_j-17">
          <mxGeometry relative="1" as="geometry" />
        </mxCell>
        <mxCell id="b-Wh1WssHsihwaRTH4_j-22" value="YES" style="edgeLabel;html=1;align=center;verticalAlign=middle;resizable=0;points=[];" vertex="1" connectable="0" parent="b-Wh1WssHsihwaRTH4_j-18">
          <mxGeometry relative="1" as="geometry">
            <mxPoint as="offset" />
          </mxGeometry>
        </mxCell>
        <mxCell id="b-Wh1WssHsihwaRTH4_j-11" value="Header &amp;amp; Tail&lt;div&gt;Correct?&lt;/div&gt;" style="rhombus;whiteSpace=wrap;html=1;" vertex="1" parent="1">
          <mxGeometry x="280" y="420" width="120" height="80" as="geometry" />
        </mxCell>
        <mxCell id="b-Wh1WssHsihwaRTH4_j-25" value="" style="edgeStyle=orthogonalEdgeStyle;rounded=0;orthogonalLoop=1;jettySize=auto;html=1;" edge="1" parent="1" source="b-Wh1WssHsihwaRTH4_j-17" target="b-Wh1WssHsihwaRTH4_j-23">
          <mxGeometry relative="1" as="geometry" />
        </mxCell>
        <mxCell id="b-Wh1WssHsihwaRTH4_j-17" value="3rd data = Run State&lt;div&gt;4th data = Run Speed&lt;/div&gt;" style="rounded=0;whiteSpace=wrap;html=1;" vertex="1" parent="1">
          <mxGeometry x="280" y="560" width="120" height="60" as="geometry" />
        </mxCell>
        <mxCell id="b-Wh1WssHsihwaRTH4_j-26" value="" style="edgeStyle=orthogonalEdgeStyle;rounded=0;orthogonalLoop=1;jettySize=auto;html=1;" edge="1" parent="1" source="b-Wh1WssHsihwaRTH4_j-23" target="b-Wh1WssHsihwaRTH4_j-24">
          <mxGeometry relative="1" as="geometry" />
        </mxCell>
        <mxCell id="b-Wh1WssHsihwaRTH4_j-23" value="Flush data" style="rounded=0;whiteSpace=wrap;html=1;" vertex="1" parent="1">
          <mxGeometry x="280" y="670" width="120" height="60" as="geometry" />
        </mxCell>
        <mxCell id="b-Wh1WssHsihwaRTH4_j-24" value="END" style="rounded=1;whiteSpace=wrap;html=1;arcSize=50;" vertex="1" parent="1">
          <mxGeometry x="280" y="780" width="120" height="60" as="geometry" />
        </mxCell>
      </root>
    </mxGraphModel>
  </diagram>
</mxfile>
